<svg width="21" height="21" viewBox="0 0 21 21" fill="none" xmlns="http://www.w3.org/2000/svg">
<path d="M8.75 19.25H12.25C16.625 19.25 18.375 17.5 18.375 13.125V7.875C18.375 3.5 16.625 1.75 12.25 1.75H8.75C4.375 1.75 2.625 3.5 2.625 7.875V13.125C2.625 17.5 4.375 19.25 8.75 19.25Z" stroke="white" stroke-width="1.5" stroke-linecap="round" stroke-linejoin="round"/>
<path d="M14.4375 6.63281V7.50781C14.4375 8.22531 13.8512 8.82031 13.125 8.82031H7.875C7.1575 8.82031 6.5625 8.23406 6.5625 7.50781V6.63281C6.5625 5.91531 7.14875 5.32031 7.875 5.32031H13.125C13.8512 5.32031 14.4375 5.90656 14.4375 6.63281Z" stroke="white" stroke-width="1.5" stroke-linecap="round" stroke-linejoin="round"/>
<path d="M7.11719 12.25H7.12769M10.4938 12.25H10.5043M13.8704 12.25H13.8809M7.11719 15.3125H7.12769M10.4938 15.3125H10.5043M13.8704 15.3125H13.8809" stroke="white" stroke-width="2" stroke-linecap="round" stroke-linejoin="round"/>
</svg>
